<?xml version="1.0" encoding="UTF-8"?>
<svg width="589px" height="497px" viewBox="0 0 589 497" version="1.1" xmlns="http://www.w3.org/2000/svg" xmlns:xlink="http://www.w3.org/1999/xlink">
    <!-- Generator: Sketch 52.4 (67378) - http://www.bohemiancoding.com/sketch -->
    <title>Group</title>
    <desc>Created with Sketch.</desc>
    <defs>
        <polygon id="path-1" points="0 302.602 137.093 302.602 137.093 -5.68434189e-14 0 -5.68434189e-14"></polygon>
        <polygon id="path-3" points="0 408.118 124.377 408.118 124.377 0 0 0"></polygon>
        <polygon id="path-5" points="0 350.485 125.933 350.485 125.933 0 0 0"></polygon>
    </defs>
    <g id="Page-1" stroke="none" stroke-width="1" fill="none" fill-rule="evenodd">
        <g id="7" transform="translate(-420.000000, -338.000000)">
            <g id="Group" transform="translate(398.000000, 338.000000)">
                <g id="Name" transform="translate(0.000000, 454.000000)" fill="#FFFFFF" font-family="Omnes" font-size="20" font-weight="normal" line-spacing="24">
                    <text id="Rahmania-Astrid-Moch">
                        <tspan x="52.14" y="14">Rahmania</tspan>
                        <tspan x="32" y="38">Astrid Mochtar</tspan>
                    </text>
                    <text id="Muhammad-Ikhsan-Kurn">
                        <tspan x="271.3" y="14">Muhammad</tspan>
                        <tspan x="249.24" y="38">Ikhsan Kurniawan</tspan>
                    </text>
                    <text id="Raden-Ajeng-Wuriandi">
                        <tspan x="497.98" y="14">Raden Ajeng </tspan>
                        <tspan x="503.75" y="38">Wuriandita</tspan>
                    </text>
                </g>
                <g id="Group-43" transform="translate(22.000000, 106.000000)">
                    <path d="M72.1038,205.7343 C72.1038,205.7343 66.1248,236.9493 35.9068,240.7553 C16.2178,243.2333 1.1968,229.8033 1.1968,229.8033 C1.1968,229.8033 4.1148,265.4753 37.3928,266.2613 C53.9678,266.6533 73.5948,254.9323 77.5288,234.4293 C81.1178,215.7183 72.1038,205.7343 72.1038,205.7343" id="Fill-1" fill="#E8C328"></path>
                    <path d="M72.1038,205.7343 C72.1038,205.7343 66.1248,236.9493 35.9068,240.7553 C16.2178,243.2333 1.1968,229.8033 1.1968,229.8033 C1.1968,229.8033 4.1148,265.4753 37.3928,266.2613 C53.9678,266.6533 73.5948,254.9323 77.5288,234.4293 C81.1178,215.7183 72.1038,205.7343 72.1038,205.7343 Z" id="Stroke-3" stroke="#4A00FF" stroke-width="2.392" stroke-linecap="round" stroke-linejoin="round"></path>
                    <polygon id="Fill-5" fill="#E8C328" points="68.9368 1.1953 68.9368 66.8693 39.7848 66.8693"></polygon>
                    <polygon id="Stroke-7" stroke="#4A00FF" stroke-width="2.392" stroke-linecap="round" stroke-linejoin="round" points="68.9368 1.1953 68.9368 66.8693 39.7848 66.8693"></polygon>
                    <polygon id="Fill-9" fill="#E8C328" points="76.8275 1.1953 76.8275 66.8693 105.9795 66.8693"></polygon>
                    <polygon id="Stroke-11" stroke="#4A00FF" stroke-width="2.392" stroke-linecap="round" stroke-linejoin="round" points="76.8275 1.1953 76.8275 66.8693 105.9795 66.8693"></polygon>
                    <mask id="mask-2" fill="white">
                        <use xlink:href="#path-1"></use>
                    </mask>
                    <g id="Clip-14"></g>
                    <polygon id="Fill-13" fill="#DC2624" mask="url(#mask-2)" points="45.59 273.603 68.582 273.603 68.582 213.085 45.59 213.085"></polygon>
                    <polygon id="Stroke-15" stroke="#4A00FF" stroke-width="2.392" stroke-linecap="round" stroke-linejoin="round" mask="url(#mask-2)" points="45.59 273.603 68.582 273.603 68.582 213.085 45.59 213.085"></polygon>
                    <polygon id="Fill-16" fill="#DC2624" mask="url(#mask-2)" points="77.705 273.603 100.174 273.603 100.174 213.085 77.705 213.085"></polygon>
                    <polygon id="Stroke-17" stroke="#4A00FF" stroke-width="2.392" stroke-linecap="round" stroke-linejoin="round" mask="url(#mask-2)" points="77.705 273.603 100.174 273.603 100.174 213.085 77.705 213.085"></polygon>
                    <path d="M133.2835,196.9345 C133.2835,203.3005 128.1235,208.4615 121.7575,208.4615 C115.3905,208.4615 110.2295,203.3005 110.2295,196.9345 C110.2295,190.5695 115.3905,185.4085 121.7575,185.4085 C128.1235,185.4085 133.2835,190.5695 133.2835,196.9345" id="Fill-18" fill="#E8C328" mask="url(#mask-2)"></path>
                    <path d="M133.2835,196.9345 C133.2835,203.3005 128.1235,208.4615 121.7575,208.4615 C115.3905,208.4615 110.2295,203.3005 110.2295,196.9345 C110.2295,190.5695 115.3905,185.4085 121.7575,185.4085 C128.1235,185.4085 133.2835,190.5695 133.2835,196.9345 Z" id="Stroke-19" stroke="#4A00FF" stroke-width="2.392" stroke-linecap="round" stroke-linejoin="round" mask="url(#mask-2)"></path>
                    <path d="M35.5345,197.7461 C35.5345,204.1121 30.3735,209.2721 24.0075,209.2721 C17.6415,209.2721 12.4805,204.1121 12.4805,197.7461 C12.4805,191.3801 17.6415,186.2201 24.0075,186.2201 C30.3735,186.2201 35.5345,191.3801 35.5345,197.7461" id="Fill-20" fill="#E8C328" mask="url(#mask-2)"></path>
                    <path d="M35.5345,197.7461 C35.5345,204.1121 30.3735,209.2721 24.0075,209.2721 C17.6415,209.2721 12.4805,204.1121 12.4805,197.7461 C12.4805,191.3801 17.6415,186.2201 24.0075,186.2201 C30.3735,186.2201 35.5345,191.3801 35.5345,197.7461 Z" id="Stroke-21" stroke="#4A00FF" stroke-width="2.392" stroke-linecap="round" stroke-linejoin="round" mask="url(#mask-2)"></path>
                    <g id="Group-24" mask="url(#mask-2)">
                        <g transform="translate(99.000000, 133.602000)">
                            <path d="M0.9515,0.064 C0.9515,0.064 36.8965,12.725 36.8965,51.806 L18.9245,51.806 L2.3645,51.806 L0.9515,0.064" id="Fill-22" stroke="none" fill="#0A33C9" fill-rule="evenodd"></path>
                            <path d="M0.9515,0.064 C0.9515,0.064 36.8965,12.725 36.8965,51.806 L18.9245,51.806 L2.3645,51.806 L0.9515,0.064" id="Stroke-23" stroke="#4A00FF" stroke-width="2.392" fill="none" stroke-linecap="round" stroke-linejoin="round"></path>
                        </g>
                    </g>
                    <g id="Group-27" mask="url(#mask-2)">
                        <g transform="translate(10.000000, 133.602000)">
                            <path d="M36.6487,0.064 C36.6487,0.064 0.7037,12.725 0.7037,51.806 L18.6757,51.806 L35.2357,51.806 L36.6487,0.064" id="Fill-25" stroke="none" fill="#0A33C9" fill-rule="evenodd"></path>
                            <path d="M36.6487,0.064 C36.6487,0.064 0.7037,12.725 0.7037,51.806 L18.6757,51.806 L35.2357,51.806 L36.6487,0.064" id="Stroke-26" stroke="#4A00FF" stroke-width="2.392" fill="none" stroke-linecap="round" stroke-linejoin="round"></path>
                        </g>
                    </g>
                    <path d="M109.8607,184.8632 C108.4467,148.0512 88.6607,132.4402 88.6607,132.4402 L72.8937,132.4402 L57.1267,132.4402 C57.1267,132.4402 37.3397,148.0512 35.9257,184.8632 C35.3527,199.7802 35.5777,213.0852 35.5777,213.0852 L72.8937,213.0852 L110.1697,213.0852 C110.1697,213.0852 110.4337,199.7802 109.8607,184.8632" id="Fill-28" fill="#0A33C9" mask="url(#mask-2)"></path>
                    <path d="M109.8607,184.8632 C108.4467,148.0512 88.6607,132.4402 88.6607,132.4402 L72.8937,132.4402 L57.1267,132.4402 C57.1267,132.4402 37.3397,148.0512 35.9257,184.8632 C35.3527,199.7802 35.5777,213.0852 35.5777,213.0852 L72.8937,213.0852 L110.1697,213.0852 C110.1697,213.0852 110.4337,199.7802 109.8607,184.8632 Z" id="Stroke-29" stroke="#4A00FF" stroke-width="2.392" stroke-linecap="round" stroke-linejoin="round" mask="url(#mask-2)"></path>
                    <path d="M107.9984,132.4404 L37.7664,132.4404 C30.7184,132.4404 25.0044,126.7264 25.0044,119.6774 L25.0044,101.6044 C25.0044,75.1624 46.4394,53.7264 72.8824,53.7264 C99.3244,53.7264 120.7614,75.1624 120.7614,101.6044 L120.7614,119.6774 C120.7614,126.7264 115.0464,132.4404 107.9984,132.4404" id="Fill-30" fill="#E8C328" mask="url(#mask-2)"></path>
                    <path d="M107.9984,132.4404 L37.7664,132.4404 C30.7184,132.4404 25.0044,126.7264 25.0044,119.6774 L25.0044,101.6044 C25.0044,75.1624 46.4394,53.7264 72.8824,53.7264 C99.3244,53.7264 120.7614,75.1624 120.7614,101.6044 L120.7614,119.6774 C120.7614,126.7264 115.0464,132.4404 107.9984,132.4404 Z" id="Stroke-31" stroke="#4A00FF" stroke-width="2.392" stroke-linecap="round" stroke-linejoin="round" mask="url(#mask-2)"></path>
                    <path d="M77.304,110.748 C77.304,112.232 75.325,113.436 72.882,113.436 C70.44,113.436 68.46,112.232 68.46,110.748 C68.46,109.263 70.44,108.06 72.882,108.06 C75.325,108.06 77.304,109.263 77.304,110.748" id="Fill-32" fill="#DC2624" mask="url(#mask-2)"></path>
                    <path d="M77.304,110.748 C77.304,112.232 75.325,113.436 72.882,113.436 C70.44,113.436 68.46,112.232 68.46,110.748 C68.46,109.263 70.44,108.06 72.882,108.06 C75.325,108.06 77.304,109.263 77.304,110.748 Z" id="Stroke-33" stroke="#4A00FF" stroke-width="2.392" stroke-linecap="round" stroke-linejoin="round" mask="url(#mask-2)"></path>
                    <path d="M45.5901,82.8515 L60.4611,97.7225" id="Stroke-34" stroke="#4A00FF" stroke-width="2.392" stroke-linecap="round" stroke-linejoin="round" mask="url(#mask-2)"></path>
                    <path d="M45.5901,97.7226 L60.4611,82.8516" id="Stroke-35" stroke="#4A00FF" stroke-width="2.392" stroke-linecap="round" stroke-linejoin="round" mask="url(#mask-2)"></path>
                    <path d="M85.303,81.7695 L100.174,96.6405" id="Stroke-36" stroke="#4A00FF" stroke-width="2.392" stroke-linecap="round" stroke-linejoin="round" mask="url(#mask-2)"></path>
                    <path d="M85.303,96.6406 L100.174,81.7696" id="Stroke-37" stroke="#4A00FF" stroke-width="2.392" stroke-linecap="round" stroke-linejoin="round" mask="url(#mask-2)"></path>
                    <path d="M59.1575,108.0595 C60.0285,107.0535 64.9645,101.5565 72.9625,101.4125 C80.6435,101.2735 85.6215,106.1725 86.6065,107.1845" id="Stroke-38" stroke="#4A00FF" stroke-width="2.392" stroke-linecap="round" stroke-linejoin="round" mask="url(#mask-2)"></path>
                    <path d="M53.4788,286.2871 C41.6588,286.7641 26.9698,289.7051 27.0798,301.4061 L53.4788,301.4061 L68.0588,301.4061 L68.0588,286.7561 L68.0588,273.6021 L53.4788,273.6021 L53.4788,286.2871 Z" id="Fill-39" fill="#70DACD" mask="url(#mask-2)"></path>
                    <path d="M53.4788,286.2871 C41.6588,286.7641 26.9698,289.7051 27.0798,301.4061 L53.4788,301.4061 L68.0588,301.4061 L68.0588,286.7561 L68.0588,273.6021 L53.4788,273.6021 L53.4788,286.2871 Z" id="Stroke-40" stroke="#4A00FF" stroke-width="2.392" stroke-linecap="round" stroke-linejoin="round" mask="url(#mask-2)"></path>
                    <path d="M92.2855,286.2871 L92.2855,273.6021 L77.7055,273.6021 L77.7055,286.7561 L77.7055,301.4061 L92.2855,301.4061 L118.6855,301.4061 C118.7945,289.7051 104.1055,286.7641 92.2855,286.2871" id="Fill-41" fill="#70DACD" mask="url(#mask-2)"></path>
                    <path d="M92.2855,286.2871 L92.2855,273.6021 L77.7055,273.6021 L77.7055,286.7561 L77.7055,301.4061 L92.2855,301.4061 L118.6855,301.4061 C118.7945,289.7051 104.1055,286.7641 92.2855,286.2871 Z" id="Stroke-42" stroke="#4A00FF" stroke-width="2.392" stroke-linecap="round" stroke-linejoin="round" mask="url(#mask-2)"></path>
                </g>
                <g id="Group-36" transform="translate(260.000000, 0.000000)">
                    <g id="Group-4" transform="translate(2.000000, 118.118000)">
                        <path d="M36.3185,0.7769 C36.3185,0.7769 0.3745,19.5959 0.3745,77.6849 L18.3465,77.6849 L34.9065,77.6849 L36.3185,0.7769" id="Fill-1" fill="#FFFFFF"></path>
                        <path d="M36.3185,0.7769 C36.3185,0.7769 0.3745,19.5959 0.3745,77.6849 L18.3465,77.6849 L34.9065,77.6849 L36.3185,0.7769" id="Stroke-3" stroke="#4A00FF" stroke-width="2.392" stroke-linecap="round" stroke-linejoin="round"></path>
                    </g>
                    <g id="Group-8" transform="translate(87.000000, 118.118000)">
                        <path d="M0.0695,0.7769 C0.0695,0.7769 36.0145,19.5959 36.0145,77.6849 L18.0425,77.6849 L1.4825,77.6849 L0.0695,0.7769" id="Fill-5" fill="#FFFFFF"></path>
                        <path d="M0.0695,0.7769 C0.0695,0.7769 36.0145,19.5959 36.0145,77.6849 L18.0425,77.6849 L1.4825,77.6849 L0.0695,0.7769" id="Stroke-7" stroke="#4A00FF" stroke-width="2.392" stroke-linecap="round" stroke-linejoin="round"></path>
                    </g>
                    <path d="M99.1672,169.3021 C97.7532,125.3511 77.9672,106.7111 77.9672,106.7111 L62.1992,106.7111 L46.4332,106.7111 C46.4332,106.7111 26.6462,125.3511 25.2322,169.3021 C24.6592,187.1121 24.8842,202.9971 24.8842,202.9971 L62.1992,202.9971 L99.4762,202.9971 C99.4762,202.9971 99.7402,187.1121 99.1672,169.3021" id="Fill-9" fill="#FFFFFF"></path>
                    <path d="M99.1672,169.3021 C97.7532,125.3511 77.9672,106.7111 77.9672,106.7111 L62.1992,106.7111 L46.4332,106.7111 C46.4332,106.7111 26.6462,125.3511 25.2322,169.3021 C24.6592,187.1121 24.8842,202.9971 24.8842,202.9971 L62.1992,202.9971 L99.4762,202.9971 C99.4762,202.9971 99.7402,187.1121 99.1672,169.3021 Z" id="Stroke-11" stroke="#4A00FF" stroke-width="2.392" stroke-linecap="round" stroke-linejoin="round"></path>
                    <mask id="mask-4" fill="white">
                        <use xlink:href="#path-3"></use>
                    </mask>
                    <g id="Clip-14"></g>
                    <polygon id="Fill-13" fill="#A35005" mask="url(#mask-4)" points="40.146 379.119 57.489 379.119 57.489 202.998 40.146 202.998"></polygon>
                    <polygon id="Stroke-15" stroke="#4A00FF" stroke-width="2.392" stroke-linecap="round" stroke-linejoin="round" mask="url(#mask-4)" points="40.146 379.119 57.489 379.119 57.489 202.998 40.146 202.998"></polygon>
                    <polygon id="Fill-16" fill="#A35005" mask="url(#mask-4)" points="66.661 379.119 84.004 379.119 84.004 202.998 66.661 202.998"></polygon>
                    <polygon id="Stroke-17" stroke="#4A00FF" stroke-width="2.392" stroke-linecap="round" stroke-linejoin="round" mask="url(#mask-4)" points="66.661 379.119 84.004 379.119 84.004 202.998 66.661 202.998"></polygon>
                    <path d="M78.7111,13.5531 C92.3211,3.0771 111.2011,16.7941 105.4431,32.9761 C122.6131,32.5011 129.8241,54.6961 115.6551,64.4031 C129.8241,74.1111 122.6131,96.3051 105.4431,95.8291 L105.4431,95.8301 C111.2011,112.0121 92.3211,125.7291 78.7111,115.2531 L78.7111,115.2521 L78.7111,115.2531 C73.8571,131.7291 50.5211,131.7291 45.6661,115.2531 L45.6661,115.2521 L45.6661,115.2531 C32.0561,125.7291 13.1761,112.0121 18.9331,95.8301 L18.9331,95.8291 C1.7641,96.3051 -5.4469,74.1111 8.7221,64.4031 C-5.4469,54.6961 1.7641,32.5011 18.9331,32.9761 C13.1761,16.7941 32.0561,3.0771 45.6661,13.5531 C50.5211,-2.9229 73.8571,-2.9229 78.7111,13.5531" id="Fill-18" fill="#1278A1" mask="url(#mask-4)"></path>
                    <path d="M78.7111,13.5531 C92.3211,3.0771 111.2011,16.7941 105.4431,32.9761 C122.6131,32.5011 129.8241,54.6961 115.6551,64.4031 C129.8241,74.1111 122.6131,96.3051 105.4431,95.8291 L105.4431,95.8301 C111.2011,112.0121 92.3211,125.7291 78.7111,115.2531 L78.7111,115.2521 L78.7111,115.2531 C73.8571,131.7291 50.5211,131.7291 45.6661,115.2531 L45.6661,115.2521 L45.6661,115.2531 C32.0561,125.7291 13.1761,112.0121 18.9331,95.8301 L18.9331,95.8291 C1.7641,96.3051 -5.4469,74.1111 8.7221,64.4031 C-5.4469,54.6961 1.7641,32.5011 18.9331,32.9761 C13.1761,16.7941 32.0561,3.0771 45.6661,13.5531 C50.5211,-2.9229 73.8571,-2.9229 78.7111,13.5531 Z" id="Stroke-19" stroke="#4A00FF" stroke-width="2.392" stroke-linecap="round" stroke-linejoin="round" mask="url(#mask-4)"></path>
                    <polygon id="Fill-20" fill="#DC2624" mask="url(#mask-4)" points="1.197 68.134 123.181 68.134 123.181 52.62 1.197 52.62"></polygon>
                    <polygon id="Stroke-21" stroke="#4A00FF" stroke-width="2.392" stroke-linecap="round" stroke-linejoin="round" mask="url(#mask-4)" points="1.197 68.134 123.181 68.134 123.181 52.62 1.197 52.62"></polygon>
                    <path d="M86.7101,83.0638 L37.6671,83.0638 C27.5841,83.0638 19.3351,74.8138 19.3351,64.7308 L19.3351,57.3018 C19.3351,47.2188 27.5841,38.9688 37.6671,38.9688 L86.7101,38.9688 C96.7931,38.9688 105.0421,47.2188 105.0421,57.3018 L105.0421,64.7308 C105.0421,74.8138 96.7931,83.0638 86.7101,83.0638" id="Fill-22" fill="#FFFFFF" mask="url(#mask-4)"></path>
                    <path d="M86.7101,83.0638 L37.6671,83.0638 C27.5841,83.0638 19.3351,74.8138 19.3351,64.7308 L19.3351,57.3018 C19.3351,47.2188 27.5841,38.9688 37.6671,38.9688 L86.7101,38.9688 C96.7931,38.9688 105.0421,47.2188 105.0421,57.3018 L105.0421,64.7308 C105.0421,74.8138 96.7931,83.0638 86.7101,83.0638 Z" id="Stroke-23" stroke="#4A00FF" stroke-width="2.392" stroke-linecap="round" stroke-linejoin="round" mask="url(#mask-4)"></path>
                    <path d="M42.4933,379.1185 C42.4933,379.1185 42.1033,398.3845 29.2503,397.3635 C23.2123,396.8845 18.8153,397.9675 15.8513,399.2515 C12.8873,400.5345 11.2753,403.7635 11.9543,406.9225 L55.1433,406.9225 L55.1433,379.1185 L42.4933,379.1185 Z" id="Fill-24" fill="#1EF41E" mask="url(#mask-4)"></path>
                    <path d="M42.4933,379.1185 C42.4933,379.1185 42.1033,398.3845 29.2503,397.3635 C23.2123,396.8845 18.8153,397.9675 15.8513,399.2515 C12.8873,400.5345 11.2753,403.7635 11.9543,406.9225 L55.1433,406.9225 L55.1433,379.1185 L42.4933,379.1185 Z" id="Stroke-25" stroke="#4A00FF" stroke-width="2.392" stroke-linecap="round" stroke-linejoin="round" mask="url(#mask-4)"></path>
                    <path d="M81.6574,379.1185 C81.6574,379.1185 82.0474,398.3845 94.9004,397.3635 C100.9384,396.8845 105.3354,397.9675 108.2994,399.2515 C111.2634,400.5345 112.8754,403.7635 112.1964,406.9225 L69.0074,406.9225 L69.0074,379.1185 L81.6574,379.1185 Z" id="Fill-26" fill="#1EF41E" mask="url(#mask-4)"></path>
                    <path d="M81.6574,379.1185 C81.6574,379.1185 82.0474,398.3845 94.9004,397.3635 C100.9384,396.8845 105.3354,397.9675 108.2994,399.2515 C111.2634,400.5345 112.8754,403.7635 112.1964,406.9225 L69.0074,406.9225 L69.0074,379.1185 L81.6574,379.1185 Z" id="Stroke-27" stroke="#4A00FF" stroke-width="2.392" stroke-linecap="round" stroke-linejoin="round" mask="url(#mask-4)"></path>
                    <path d="M34.8967,53.4828 L49.7677,68.3538" id="Stroke-28" stroke="#4A00FF" stroke-width="2.392" stroke-linecap="round" stroke-linejoin="round" mask="url(#mask-4)"></path>
                    <path d="M34.8967,68.3539 L49.7677,53.4829" id="Stroke-29" stroke="#4A00FF" stroke-width="2.392" stroke-linecap="round" stroke-linejoin="round" mask="url(#mask-4)"></path>
                    <path d="M74.6095,52.4007 L89.4805,67.2727" id="Stroke-30" stroke="#4A00FF" stroke-width="2.392" stroke-linecap="round" stroke-linejoin="round" mask="url(#mask-4)"></path>
                    <path d="M74.6095,67.2728 L89.4805,52.4008" id="Stroke-31" stroke="#4A00FF" stroke-width="2.392" stroke-linecap="round" stroke-linejoin="round" mask="url(#mask-4)"></path>
                    <path d="M25.8478,207.3294 C25.8478,213.6954 20.6868,218.8554 14.3218,218.8554 C7.9548,218.8554 2.7938,213.6954 2.7938,207.3294 C2.7938,200.9634 7.9548,195.8034 14.3218,195.8034 C20.6868,195.8034 25.8478,200.9634 25.8478,207.3294" id="Fill-32" fill="#1278A1" mask="url(#mask-4)"></path>
                    <path d="M25.8478,207.3294 C25.8478,213.6954 20.6868,218.8554 14.3218,218.8554 C7.9548,218.8554 2.7938,213.6954 2.7938,207.3294 C2.7938,200.9634 7.9548,195.8034 14.3218,195.8034 C20.6868,195.8034 25.8478,200.9634 25.8478,207.3294 Z" id="Stroke-33" stroke="#4A00FF" stroke-width="2.392" stroke-linecap="round" stroke-linejoin="round" mask="url(#mask-4)"></path>
                    <path d="M122.59,207.3294 C122.59,213.6954 117.429,218.8554 111.064,218.8554 C104.697,218.8554 99.536,213.6954 99.536,207.3294 C99.536,200.9634 104.697,195.8034 111.064,195.8034 C117.429,195.8034 122.59,200.9634 122.59,207.3294" id="Fill-34" fill="#1278A1" mask="url(#mask-4)"></path>
                    <path d="M122.59,207.3294 C122.59,213.6954 117.429,218.8554 111.064,218.8554 C104.697,218.8554 99.536,213.6954 99.536,207.3294 C99.536,200.9634 104.697,195.8034 111.064,195.8034 C117.429,195.8034 122.59,200.9634 122.59,207.3294 Z" id="Stroke-35" stroke="#4A00FF" stroke-width="2.392" stroke-linecap="round" stroke-linejoin="round" mask="url(#mask-4)"></path>
                </g>
                <g id="Group-49" transform="translate(485.000000, 58.000000)">
                    <path d="M123.5419,199.3107 C123.5419,205.6767 118.3819,210.8377 112.0159,210.8377 C105.6489,210.8377 100.4889,205.6767 100.4889,199.3107 C100.4889,192.9457 105.6489,187.7847 112.0159,187.7847 C118.3819,187.7847 123.5419,192.9457 123.5419,199.3107" id="Fill-1" fill="#F98FB2"></path>
                    <path d="M123.5419,199.3107 C123.5419,205.6767 118.3819,210.8377 112.0159,210.8377 C105.6489,210.8377 100.4889,205.6767 100.4889,199.3107 C100.4889,192.9457 105.6489,187.7847 112.0159,187.7847 C118.3819,187.7847 123.5419,192.9457 123.5419,199.3107 Z" id="Stroke-3" stroke="#4A00FF" stroke-width="2.392" stroke-linecap="round" stroke-linejoin="round"></path>
                    <path d="M26.8007,199.3107 C26.8007,205.6767 21.6397,210.8377 15.2747,210.8377 C8.9077,210.8377 3.7467,205.6767 3.7467,199.3107 C3.7467,192.9457 8.9077,187.7847 15.2747,187.7847 C21.6397,187.7847 26.8007,192.9457 26.8007,199.3107" id="Fill-5" fill="#F98FB2"></path>
                    <path d="M26.8007,199.3107 C26.8007,205.6767 21.6397,210.8377 15.2747,210.8377 C8.9077,210.8377 3.7467,205.6767 3.7467,199.3107 C3.7467,192.9457 8.9077,187.7847 15.2747,187.7847 C21.6397,187.7847 26.8007,192.9457 26.8007,199.3107 Z" id="Stroke-7" stroke="#4A00FF" stroke-width="2.392" stroke-linecap="round" stroke-linejoin="round"></path>
                    <g id="Group-12" transform="translate(88.000000, 135.485000)">
                        <path d="M0.7929,0.5571 C0.7929,0.5571 36.7369,13.2181 36.7369,52.2991 L18.7649,52.2991 L2.2049,52.2991 L0.7929,0.5571" id="Fill-9" fill="#DC2624"></path>
                        <path d="M0.7929,0.5571 C0.7929,0.5571 36.7369,13.2181 36.7369,52.2991 L18.7649,52.2991 L2.2049,52.2991 L0.7929,0.5571" id="Stroke-11" stroke="#4A00FF" stroke-width="2.392" stroke-linecap="round" stroke-linejoin="round"></path>
                    </g>
                    <g id="Group-16" transform="translate(1.000000, 135.485000)">
                        <path d="M36.1406,0.5571 C36.1406,0.5571 0.1966,13.2181 0.1966,52.2991 L18.1686,52.2991 L34.7286,52.2991 L36.1406,0.5571" id="Fill-13" fill="#DC2624"></path>
                        <path d="M36.1406,0.5571 C36.1406,0.5571 0.1966,13.2181 0.1966,52.2991 L18.1686,52.2991 L34.7286,52.2991 L36.1406,0.5571" id="Stroke-15" stroke="#4A00FF" stroke-width="2.392" stroke-linecap="round" stroke-linejoin="round"></path>
                    </g>
                    <polygon id="Fill-17" fill="#D9D3B0" points="29.2626 211.9035 35.8016 321.4855 60.4356 321.4855 60.4356 211.9035"></polygon>
                    <polygon id="Stroke-19" stroke="#4A00FF" stroke-width="2.392" stroke-linecap="round" stroke-linejoin="round" points="29.2626 211.9035 35.8016 321.4855 60.4356 321.4855 60.4356 211.9035"></polygon>
                    <polygon id="Fill-21" fill="#D9D3B0" points="97.0419 211.9035 90.5029 321.4855 65.8689 321.4855 65.8689 211.9035"></polygon>
                    <polygon id="Stroke-23" stroke="#4A00FF" stroke-width="2.392" stroke-linecap="round" stroke-linejoin="round" points="97.0419 211.9035 90.5029 321.4855 65.8689 321.4855 65.8689 211.9035"></polygon>
                    <mask id="mask-6" fill="white">
                        <use xlink:href="#path-5"></use>
                    </mask>
                    <g id="Clip-26"></g>
                    <polygon id="Fill-25" fill="#E8C328" mask="url(#mask-6)" points="43.596 349.29 58.176 349.29 58.176 321.486 43.596 321.486"></polygon>
                    <polygon id="Stroke-27" stroke="#4A00FF" stroke-width="2.392" stroke-linecap="round" stroke-linejoin="round" mask="url(#mask-6)" points="43.596 349.29 58.176 349.29 58.176 321.486 43.596 321.486"></polygon>
                    <polygon id="Fill-28" fill="#E8C328" mask="url(#mask-6)" points="67.821 349.29 82.402 349.29 82.402 321.486 67.821 321.486"></polygon>
                    <polygon id="Stroke-29" stroke="#4A00FF" stroke-width="2.392" stroke-linecap="round" stroke-linejoin="round" mask="url(#mask-6)" points="67.821 349.29 82.402 349.29 82.402 321.486 67.821 321.486"></polygon>
                    <path d="M77.7675,137.8039 L48.5375,137.8039 C30.1655,137.8039 15.2745,122.9109 15.2745,104.5399 L15.2745,102.4979 C15.2745,78.5249 34.7085,59.0899 58.6825,59.0899 L67.6215,59.0899 C91.5955,59.0899 111.0305,78.5249 111.0305,102.4979 L111.0305,104.5399 C111.0305,122.9109 96.1385,137.8039 77.7675,137.8039" id="Fill-30" fill="#F98FB2" mask="url(#mask-6)"></path>
                    <path d="M77.7675,137.8039 L48.5375,137.8039 C30.1655,137.8039 15.2745,122.9109 15.2745,104.5399 L15.2745,102.4979 C15.2745,78.5249 34.7085,59.0899 58.6825,59.0899 L67.6215,59.0899 C91.5955,59.0899 111.0305,78.5249 111.0305,102.4979 L111.0305,104.5399 C111.0305,122.9109 96.1385,137.8039 77.7675,137.8039 Z" id="Stroke-31" stroke="#4A00FF" stroke-width="2.392" stroke-linecap="round" stroke-linejoin="round" mask="url(#mask-6)"></path>
                    <path d="M67.5742,116.1115 C67.5742,117.5955 65.5952,118.7995 63.1522,118.7995 C60.7102,118.7995 58.7302,117.5955 58.7302,116.1115 C58.7302,114.6265 60.7102,113.4225 63.1522,113.4225 C65.5952,113.4225 67.5742,114.6265 67.5742,116.1115" id="Fill-32" fill="#DC2624" mask="url(#mask-6)"></path>
                    <path d="M67.5742,116.1115 C67.5742,117.5955 65.5952,118.7995 63.1522,118.7995 C60.7102,118.7995 58.7302,117.5955 58.7302,116.1115 C58.7302,114.6265 60.7102,113.4225 63.1522,113.4225 C65.5952,113.4225 67.5742,114.6265 67.5742,116.1115 Z" id="Stroke-33" stroke="#4A00FF" stroke-width="2.392" stroke-linecap="round" stroke-linejoin="round" mask="url(#mask-6)"></path>
                    <path d="M35.8603,88.214 L50.7313,103.086" id="Stroke-34" stroke="#4A00FF" stroke-width="2.392" stroke-linecap="round" stroke-linejoin="round" mask="url(#mask-6)"></path>
                    <path d="M35.8603,103.0861 L50.7313,88.2141" id="Stroke-35" stroke="#4A00FF" stroke-width="2.392" stroke-linecap="round" stroke-linejoin="round" mask="url(#mask-6)"></path>
                    <path d="M75.5732,87.133 L90.4442,102.004" id="Stroke-36" stroke="#4A00FF" stroke-width="2.392" stroke-linecap="round" stroke-linejoin="round" mask="url(#mask-6)"></path>
                    <path d="M75.5732,102.0041 L90.4442,87.1331" id="Stroke-37" stroke="#4A00FF" stroke-width="2.392" stroke-linecap="round" stroke-linejoin="round" mask="url(#mask-6)"></path>
                    <path d="M49.4277,113.422 C50.2987,112.417 55.2347,106.92 63.2327,106.776 C70.9137,106.637 75.8917,111.536 76.8767,112.548" id="Stroke-38" stroke="#4A00FF" stroke-width="2.392" stroke-linecap="round" stroke-linejoin="round" mask="url(#mask-6)"></path>
                    <path d="M58.1757,334.6388 C58.1757,334.6388 17.0137,329.7338 17.1957,349.2888 L58.1757,349.2888 L58.1757,334.6388 Z" id="Fill-39" fill="#FFFFFF" mask="url(#mask-6)"></path>
                    <path d="M58.1757,334.6388 C58.1757,334.6388 17.0137,329.7338 17.1957,349.2888 L58.1757,349.2888 L58.1757,334.6388 Z" id="Stroke-40" stroke="#4A00FF" stroke-width="2.392" stroke-linecap="round" stroke-linejoin="round" mask="url(#mask-6)"></path>
                    <path d="M67.8212,334.6388 C67.8212,334.6388 108.9832,329.7338 108.8012,349.2888 L67.8212,349.2888 L67.8212,334.6388 Z" id="Fill-41" fill="#FFFFFF" mask="url(#mask-6)"></path>
                    <path d="M67.8212,334.6388 C67.8212,334.6388 108.9832,329.7338 108.8012,349.2888 L67.8212,349.2888 L67.8212,334.6388 Z" id="Stroke-42" stroke="#4A00FF" stroke-width="2.392" stroke-linecap="round" stroke-linejoin="round" mask="url(#mask-6)"></path>
                    <path d="M100.1308,188.5548 C98.7168,152.9168 78.9308,137.8038 78.9308,137.8038 L63.1628,137.8038 L47.3968,137.8038 C47.3968,137.8038 27.6098,152.9168 26.1958,188.5548 C25.6228,202.9958 25.8478,215.8768 25.8478,215.8768 L63.1628,215.8768 L100.4398,215.8768 C100.4398,215.8768 100.7038,202.9958 100.1308,188.5548" id="Fill-43" fill="#134120" mask="url(#mask-6)"></path>
                    <path d="M100.1308,188.5548 C98.7168,152.9168 78.9308,137.8038 78.9308,137.8038 L63.1628,137.8038 L47.3968,137.8038 C47.3968,137.8038 27.6098,152.9168 26.1958,188.5548 C25.6228,202.9958 25.8478,215.8768 25.8478,215.8768 L63.1628,215.8768 L100.4398,215.8768 C100.4398,215.8768 100.7038,202.9958 100.1308,188.5548 Z" id="Stroke-44" stroke="#4A00FF" stroke-width="2.392" stroke-linecap="round" stroke-linejoin="round" mask="url(#mask-6)"></path>
                    <path d="M66.4853,57.9728 C78.0913,57.9728 87.5013,42.3608 87.5013,30.7538 C88.1543,15.9928 78.0913,1.1968 66.4853,1.1968 L66.4853,57.9728 Z" id="Fill-45" fill="#F98FB2" mask="url(#mask-6)"></path>
                    <path d="M66.4853,57.9728 C78.0913,57.9728 87.5013,42.3608 87.5013,30.7538 C88.1543,15.9928 78.0913,1.1968 66.4853,1.1968 L66.4853,57.9728 Z" id="Stroke-46" stroke="#4A00FF" stroke-width="2.392" stroke-linecap="round" stroke-linejoin="round" mask="url(#mask-6)"></path>
                    <path d="M58.1865,57.9728 C46.5805,57.9728 37.1705,42.3608 37.1705,30.7538 C36.5175,15.9928 46.5805,1.1968 58.1865,1.1968 L58.1865,57.9728 Z" id="Fill-47" fill="#F98FB2" mask="url(#mask-6)"></path>
                    <path d="M58.1865,57.9728 C46.5805,57.9728 37.1705,42.3608 37.1705,30.7538 C36.5175,15.9928 46.5805,1.1968 58.1865,1.1968 L58.1865,57.9728 Z" id="Stroke-48" stroke="#4A00FF" stroke-width="2.392" stroke-linecap="round" stroke-linejoin="round" mask="url(#mask-6)"></path>
                </g>
                <g id="Group-4" transform="translate(70.000000, 36.000000)">
                    <polygon id="Fill-1" fill="#DC2624" points="32.7334 0.1961 25.5864 7.1111 18.4394 0.1961 0.1964 0.1961 0.1964 21.2891 25.5864 44.8041 50.9764 21.2891 50.9764 0.1961"></polygon>
                    <polygon id="Stroke-2" stroke="#4A00FF" stroke-width="2.392" stroke-linecap="round" stroke-linejoin="round" points="32.7334 0.1961 25.5864 7.1111 18.4394 0.1961 0.1964 0.1961 0.1964 21.2891 25.5864 44.8041 50.9764 21.2891 50.9764 0.1961"></polygon>
                </g>
            </g>
        </g>
    </g>
</svg>